# xmcd CD database file
#
# Track frame offsets:
#	150
#	21301
#	37703
#	58859
#	75809
#	93431
#	122553
#	141944
#
# Disc length: 2174 seconds
#
# Revision: 0
# Processed by: cddbd v1.5.1PL2 Copyright (c) Steve Scherf et al.
# Submitted via: CD2WAV32(JP) R3.22
#
DISCID=5a087c08
DTITLE=SAKURA - SOUL ESSENCE
DYEAR=2006
DGENRE=R&B
TTITLE0=Oh we Oh
TTITLE1=Bye Bye Love
TTITLE2=SMILE 4 ME
TTITLE3=Best Of My Love
TTITLE4=広がるリズム
TTITLE5=BUDDY TO BOO
TTITLE6=again
TTITLE7=WHY
EXTD=
EXTT0=
EXTT1=
EXTT2=
EXTT3=
EXTT4=
EXTT5=
EXTT6=
EXTT7=
PLAYORDER=
